<?xml version="1.0" ?><!DOCTYPE svg  PUBLIC '-//W3C//DTD SVG 1.1//EN'  'http://www.w3.org/Graphics/SVG/1.1/DTD/svg11.dtd'>
<svg enable-background="new 0 0 153 153" height="500px" id="Layer_1" version="1.1" viewBox="0 0 500 500" width="500px" xml:space="preserve" xmlns="http://www.w3.org/2000/svg" xmlns:xlink="http://www.w3.org/1999/xlink">
<!--<rect fill="#239782" height="600" width="600"/>-->
<path clip-rule="evenodd" d="M245.457,322.41c-10.177-12.902-19.076-19.266-41.159-21.435  c-4.003-0.729-6.904-4.18-6.904-8.272c0-3,9.814-11.993,9.716-12.082c10.185-10.267,15.633-26.893,15.633-39.707  c0-19.891-17.62-36.34-40.886-36.34c-23.716,0-40.883,16.449-40.883,36.34c0,12.901,5.358,29.616,15.536,39.891  c0,0,9.812,8.897,9.812,11.897c0,4.268-3.272,7.905-7.63,8.447c-21.63,2.183-30.351,8.544-40.431,21.26  c-2.822,3.726-4.455,11.08-4.543,14.994v17.078c0,7.544,6.264,13.63,13.992,13.63h108.298c7.728,0,13.992-6.086,13.992-13.63  v-17.078C249.912,333.49,248.358,326.136,245.457,322.41z M354.482,222.745h-45.427c-12.536,0-22.715,10.177-22.715,22.713  c0,12.537,10.179,22.715,22.715,22.715h45.427c12.536,0,22.716-10.179,22.716-22.715  C377.198,232.921,367.019,222.745,354.482,222.745z M354.482,304.514h-45.427c-12.536,0-22.715,10.175-22.715,22.715  c0,12.536,10.179,22.711,22.715,22.711h45.427c12.536,0,22.716-10.175,22.716-22.711  C377.198,314.688,367.019,304.514,354.482,304.514z M31.949,413.539c0,20.079,16.264,36.341,36.34,36.341h363.421  c20.078,0,36.34-16.262,36.34-36.341V122.803c0-20.077-16.262-36.34-36.34-36.34H322.685V70.109c0-11.08-8.91-19.989-19.991-19.989  H197.306c-11.083,0-19.989,8.909-19.989,19.989v16.354H68.29c-20.077,0-36.34,16.263-36.34,36.34V413.539z M97.367,131.889h79.95  v16.354c0,11.081,8.907,19.989,19.989,19.989h105.387c11.081,0,19.991-8.908,19.991-19.989v-16.354h79.949  c11.084,0,19.99,8.909,19.99,19.991v232.586c0,11.08-8.906,19.987-19.99,19.987H97.367c-11.083,0-19.991-8.907-19.991-19.987V151.88  C77.375,140.798,86.284,131.889,97.367,131.889z" stroke="#BC9D1E" stroke-width="3" fill="#fff" fill-rule="evenodd"/></svg>