<?xml version="1.0" ?><svg id="Layer_1" style="enable-background:new 0 0 512 512;" version="1.1" viewBox="0 0 512 512" xml:space="preserve" xmlns="http://www.w3.org/2000/svg" xmlns:xlink="http://www.w3.org/1999/xlink"><path d="M454.2,89.5h-75v22.2h10.8c7.2,0,13,5.8,13,13c0,7.2-5.8,13-13,13h-47.5c-7.2,0-13-5.8-13-13c0-7.2,5.8-13,13-13h10.8V89.5  H158.8v22.2h10.8c7.2,0,13,5.8,13,13c0,7.2-5.8,13-13,13h-47.5c-7.2,0-13-5.8-13-13c0-7.2,5.8-13,13-13h10.8V89.5h-75  C29.2,89.5,6,112.7,6,141.4v229.3c0,28.6,23.2,51.8,51.8,51.8h396.4c28.6,0,51.8-23.2,51.8-51.8V141.4  C506,112.7,482.8,89.5,454.2,89.5z M148.6,186.4c24.4,0,44.2,19.8,44.2,44.2s-19.8,44.2-44.2,44.2s-44.2-19.8-44.2-44.2  S124.2,186.4,148.6,186.4z M52.1,363.7c0-45.4,36.8-82.2,82.2-82.2H163c45.4,0,82.2,36.8,82.2,82.2H52.1z M448.9,347.8H289.1  c-6,0-10.9-4.9-10.9-10.9v0c0-6,4.9-10.9,10.9-10.9h159.9c6,0,10.9,4.9,10.9,10.9v0C459.9,342.9,455,347.8,448.9,347.8z M448.9,286  H289.1c-6,0-10.9-4.9-10.9-10.9v0c0-6,4.9-10.9,10.9-10.9h159.9c6,0,10.9,4.9,10.9,10.9v0C459.9,281.1,455,286,448.9,286z   M448.9,224.2H289.1c-6,0-10.9-4.9-10.9-10.9v0c0-6,4.9-10.9,10.9-10.9h159.9c6,0,10.9,4.9,10.9,10.9v0  C459.9,219.3,455,224.2,448.9,224.2z"/></svg>