<?xml version="1.0" ?><!DOCTYPE svg  PUBLIC '-//W3C//DTD SVG 1.1//EN'  'http://www.w3.org/Graphics/SVG/1.1/DTD/svg11.dtd'><svg enable-background="new 0 0 24 24" height="24px" id="Layer_1" version="1.1" viewBox="0 0 24 24" width="24px" xml:space="preserve" xmlns="http://www.w3.org/2000/svg" xmlns:xlink="http://www.w3.org/1999/xlink"><g><path d="M19.7,0.5H4.3c-2.1,0-3.8,1.7-3.8,3.8v15.4c0,2.1,1.7,3.8,3.8,3.8h15.4c2.1,0,3.8-1.7,3.8-3.8V4.3   C23.5,2.2,21.8,0.5,19.7,0.5z M15,14.2c0.5-0.3,1.1-0.5,1.7-0.5c1.7,0,3,1.4,3,3c0,1.7-1.4,3-3,3c-1.6,0-3-1.3-3-2.9L9,14.5   C8.5,14.9,7.9,15,7.3,15c-1.7,0-3-1.4-3-3c0-1.7,1.4-3,3-3C7.9,9,8.5,9.1,9,9.5l4.6-2.3c0.1-1.6,1.4-2.9,3-2.9c1.7,0,3,1.4,3,3   c0,1.7-1.4,3-3,3c-0.6,0-1.2-0.2-1.7-0.5L10.6,12L15,14.2z" fill="#b889cb"/></g></svg>