<?xml version="1.0" ?><svg id="Layer_1" style="enable-background:new 0 0 512 512;" version="1.1" viewBox="0 0 512 512" xml:space="preserve" xmlns="http://www.w3.org/2000/svg" xmlns:xlink="http://www.w3.org/1999/xlink"><style type="text/css">
	.st0{fill:#5D9FD6;}
	.st1{fill-rule:evenodd;clip-rule:evenodd;fill:#FFFFFF;}
</style><g><path class="st0" d="M512,397.1c0,63.5-51.5,114.9-114.9,114.9H114.9C51.5,512,0,460.5,0,397.1V114.9C0,51.5,51.5,0,114.9,0h282.2   C460.5,0,512,51.5,512,114.9V397.1z"/><g><path class="st1" d="M305.2,180.6c30.2,36,22.4,70.9,2.6,94.3c-11.8,14.1-26.6,24-43.2,30.7c-23.4,10.2-48.2,13.3-73.3,11.5    c-6.7-0.3-11.2,1.3-15.4,6.4c-11.2,13.8-23,26.9-34.6,40.6c-6.4,3.4-4.8-1.8-4.8-4.3c0-14.9-0.3-29.9,0.3-44.8    c0.2-7.7-1.9-12.3-9.4-15.8c-12-5.9-21.9-14.4-30.6-24.6c-23.7-29.1-22.1-66.4,3.7-93.8C121,159,147,147.9,176,143.6    C224.5,136.6,268.3,146.2,305.2,180.6z"/><path class="st1" d="M428.7,233.9c9.3,35.1-1,60.2-33.6,79c-6.7,3.9-9,7.7-8.5,15.4c0.5,12.8,0,25.9,0,42.2    c-11.7-13.3-21.8-24-31.4-35.5c-4-5.1-8.2-6.7-15.2-6.4c-21.1,1.3-41.9-2.1-61.4-11c-2.6-0.8-5.8-1.8-7.4-5.1    c29.8-14.1,54.7-33.8,61.6-68.3c4.3-20.6-0.5-40.5-14.1-57.6c14.6-4.8,29-2.1,43.4,1.1C390.4,193.9,414,207.6,428.7,233.9z"/></g></g></svg>