<?xml version="1.0" ?><svg id="Layer_1" style="enable-background:new 0 0 512 512;" version="1.1" viewBox="0 0 512 512" xml:space="preserve" xmlns="http://www.w3.org/2000/svg" xmlns:xlink="http://www.w3.org/1999/xlink"><g><path d="M512,397.1c0,63.5-51.5,114.9-114.9,114.9H114.9C51.5,512,0,460.5,0,397.1V114.9C0,51.5,51.5,0,114.9,0h282.2   C460.5,0,512,51.5,512,114.9V397.1z" fill="#b889cb"/><path d="M194,219.6c6.6,0,12.8,2.2,18.3,5.4l73.8-56.6c-2-4.5-3.3-9.5-3.3-14.6c0-19.3,15.8-35.3,35.1-35.3   c19.7,0,35.4,15.9,35.4,35.3c0,19.3-15.8,35.1-35.4,35.1c-7.6,0-14.7-2.5-20.6-6.7L224.6,238c2.8,5,4.5,10.8,4.5,17   c0,6.2-1.9,12.5-4.8,17.5l73.5,57.4c5.6-4.2,12.6-6.7,20.1-6.7c19.7,0,35.4,15.9,35.4,35.4c0,19.2-15.8,34.9-35.4,34.9   c-19.3,0-35.1-15.8-35.1-34.9c0-5.5,1.2-10.8,3.6-15.4l-74.7-57.7c-5.1,2.8-11.2,5-17.6,5c-19.3,0-35.3-15.9-35.3-35.4   C158.7,235.5,174.6,219.6,194,219.6z" fill="#fff"/></g></svg>