<?xml version="1.0" ?><svg data-name="Layer 1" id="Layer_1" viewBox="0 0 128 128" xmlns="http://www.w3.org/2000/svg"><path d="M98,0H30A30,30,0,0,0,0,30V98a30,30,0,0,0,30,30H98a30,30,0,0,0,30-30V30A30,30,0,0,0,98,0Zm2,60.45L86.25,74a1.11,1.11,0,0,0-.3,1l3.2,18.9A5.31,5.31,0,0,1,87,99a5,5,0,0,1-3.1,1,5.33,5.33,0,0,1-2.4-.6l-17-8.9a1.08,1.08,0,0,0-1.1,0l-17,8.9A5.2,5.2,0,0,1,41,99a5.31,5.31,0,0,1-2.1-5.1L42,75a1,1,0,0,0-.3-1L28,60.55a5.38,5.38,0,0,1-1.3-5.4,5.2,5.2,0,0,1,4.2-3.6l19-2.8a1.15,1.15,0,0,0,.9-.6L59.35,31a5.26,5.26,0,0,1,9.4,0L77.15,48a1.46,1.46,0,0,0,.9.6l19,2.8a5.2,5.2,0,0,1,4.2,3.6A5.38,5.38,0,0,1,100,60.45Z" fill="#f1aeae"/><path d="M96.45,55.65l-19-2.8a5.53,5.53,0,0,1-3.9-2.9L65,32.65a1.11,1.11,0,0,0-1-.6,1,1,0,0,0-1,.6l-8.5,17.2a4.9,4.9,0,0,1-3.9,2.9l-19,2.8a1.23,1.23,0,0,0-.9.8,1,1,0,0,0,.3,1.2L44.65,71a5.23,5.23,0,0,1,1.5,4.6L43,94.45a1.07,1.07,0,0,0,.5,1.1,1.15,1.15,0,0,0,1.2.1l17-8.9a5,5,0,0,1,2.4-.6,5.33,5.33,0,0,1,2.4.6l17,8.9a1.15,1.15,0,0,0,1.2-.1,1.07,1.07,0,0,0,.5-1.1l-3.3-18.9a5.53,5.53,0,0,1,1.5-4.6L97,57.65a1,1,0,0,0,.3-1.2A1.06,1.06,0,0,0,96.45,55.65Z" fill="#f1aeae"/></svg>