<?xml version="1.0" ?><svg data-name="Layer 1" id="Layer_1" viewBox="0 0 128 128" xmlns="http://www.w3.org/2000/svg">
    <path d="M85.17,84.09,73.69,78.35a6.07,6.07,0,0,1-3.23-5V69.38a1.86,1.86,0,0,1,.72-1.43c.36-.36.36-.72.72-1.08a18.21,18.21,0,0,0,3.23-6.46A2.8,2.8,0,0,1,76.56,59,2.42,2.42,0,0,0,78,56.83v-4.3a2.72,2.72,0,0,0-.72-1.43,2.74,2.74,0,0,1-.72-1.79V42.83c0-.72.36-3.95-1.79-6.1-2.51-2.51-6.1-3.59-10.76-3.59s-8.25,1.08-10,3.23c-2.15,2.87-2.15,5.74-1.79,6.1v6.82c0,.72-.36,1.08-.72,1.79a1.86,1.86,0,0,0-.72,1.43v5a2.74,2.74,0,0,0,.72,1.79,1.15,1.15,0,0,1,1.08,1.08,21.8,21.8,0,0,0,3.95,7.89,2.16,2.16,0,0,1,.36,1.43v3.95a5.73,5.73,0,0,1-2.87,5L43.19,84.45a7.89,7.89,0,0,0-4.3,7.17,2.45,2.45,0,0,0,2.51,2.51H87.32a2.45,2.45,0,0,0,2.51-2.51A8.37,8.37,0,0,0,85.17,84.09Z" fill="#fff" color="#fff"/>
    <path d="M98,0H30A30,30,0,0,0,0,30V98a30,30,0,0,0,30,30H98a30,30,0,0,0,30-30V30A30,30,0,0,0,98,0ZM87,99.87H41a7.58,7.58,0,0,1-7.53-7.53,14.33,14.33,0,0,1,7.17-12.2L51.44,74.4c.36,0,.36-.36.36-.72V70.46a25.06,25.06,0,0,1-3.95-8.25,6,6,0,0,1-2.15-5V52.52a7.23,7.23,0,0,1,1.08-3.95V42.83A14.14,14.14,0,0,1,50,33.15c3.23-3.23,7.89-5,14-5s10.76,1.79,14,5a13.35,13.35,0,0,1,3.23,9.69v5.38a9.55,9.55,0,0,1,1.08,4.3v5a8,8,0,0,1-3.23,6.1,40.89,40.89,0,0,1-3.59,6.82c0,.36-.36.36-.36.72V74.4c0,.36,0,.36.36.72L87,80.86a13.15,13.15,0,0,1,7.53,12.2C94.49,96.64,90.91,99.87,87,99.87Z" fill="#f5d554"/></svg>