<?xml version="1.0" ?><!DOCTYPE svg  PUBLIC '-//W3C//DTD SVG 1.1//EN'  'http://www.w3.org/Graphics/SVG/1.1/DTD/svg11.dtd'>
<svg enable-background="new 0 0 153 153" height="153px" id="Layer_1" version="1.1" viewBox="0 0 153 153" width="153px" xml:space="preserve" xmlns="http://www.w3.org/2000/svg" xmlns:xlink="http://www.w3.org/1999/xlink"><g>
    <path d="M152.5,122.1c0,16.789-13.611,30.4-30.399,30.4H30.901c-16.789,0-30.4-13.611-30.4-30.4v-91.2   C0.501,14.11,14.112,0.5,30.901,0.5h91.199c16.788,0,30.399,13.61,30.399,30.399V122.1z" fill="#ADD79C"/>
    <path d="M127.208,87.663c-3.248-2.511-6.496-5.021-9.745-7.53c0.215-2.396,0.227-4.823,0.011-7.256   c3.247-2.509,6.494-5.017,9.742-7.525c4.298-3.322,2.674-5.859,0.871-10.212c-1.802-4.353-2.448-7.295-7.837-6.604   c-4.07,0.522-8.14,1.045-12.209,1.567c-1.568-1.874-3.293-3.581-5.139-5.124c0.001-0.003,0.003-0.006,0.004-0.009   c0.522-4.075,1.045-8.149,1.567-12.225c0.691-5.39-2.251-6.035-6.604-7.838c-4.352-1.802-6.89-3.427-10.211,0.873   c-2.512,3.251-5.023,6.502-7.535,9.752c-0.002,0.004-0.003,0.008-0.005,0.013c-2.391-0.213-4.813-0.226-7.241-0.01   c0-0.001-0.001-0.002-0.001-0.003c-2.512-3.25-5.022-6.501-7.534-9.752c-3.322-4.3-5.859-2.676-10.212-0.873   s-7.295,2.448-6.604,7.838c0.522,4.075,1.046,8.149,1.568,12.225c0,0.001,0.001,0.001,0.001,0.002   c-1.872,1.566-3.577,3.29-5.118,5.134c-0.001,0-0.001-0.001-0.002-0.001c-4.075-0.522-8.149-1.047-12.225-1.569   c-5.39-0.691-6.035,2.25-7.838,6.604c-1.803,4.352-3.427,6.89,0.873,10.211c3.251,2.512,6.502,5.023,9.752,7.535   c0.002,0.001,0.003,0.001,0.005,0.002c-0.214,2.393-0.226,4.817-0.01,7.247c-3.246,2.51-6.495,5.019-9.741,7.526   c-4.3,3.323-2.677,5.858-0.873,10.213c1.802,4.351,2.448,7.295,7.837,6.602c4.069-0.521,8.142-1.044,12.211-1.565   c1.565,1.87,3.287,3.575,5.13,5.115c-0.001,0.002-0.002,0.003-0.002,0.004c-0.522,4.074-1.046,8.15-1.568,12.225   c-0.691,5.389,2.251,6.033,6.604,7.838c4.352,1.803,6.89,3.426,10.211-0.873c2.512-3.25,5.023-6.503,7.534-9.753   c2.396,0.214,4.823,0.227,7.257,0.011c2.509,3.248,5.017,6.496,7.525,9.742c3.322,4.299,5.859,2.676,10.212,0.873   c4.352-1.803,7.295-2.447,6.604-7.838c-0.521-4.069-1.045-8.141-1.566-12.211c1.872-1.566,3.578-3.29,5.12-5.134   c4.07,0.522,8.145,1.045,12.217,1.568c5.389,0.691,6.035-2.251,7.837-6.604C129.884,93.521,131.51,90.984,127.208,87.663z    M54.911,85.451c-4.939-11.926,0.724-25.598,12.648-30.537s25.597,0.723,30.536,12.648s-0.723,25.597-12.648,30.536   C73.522,103.038,59.851,97.375,54.911,85.451z" fill="#FFFFFF"/></g></svg>