<?xml version="1.0" ?><!DOCTYPE svg  PUBLIC '-//W3C//DTD SVG 1.1//EN'  'http://www.w3.org/Graphics/SVG/1.1/DTD/svg11.dtd'><svg enable-background="new 0 0 153 153" height="153px" id="Layer_1" version="1.1" viewBox="0 0 153 153" width="153px" xml:space="preserve" xmlns="http://www.w3.org/2000/svg" xmlns:xlink="http://www.w3.org/1999/xlink"><g><path d="M152.5,122.426c0,16.789-13.611,30.4-30.398,30.4h-91.2c-16.789,0-30.4-13.611-30.4-30.4v-91.2   c0-16.79,13.611-30.4,30.4-30.4h91.2c16.787,0,30.398,13.61,30.398,30.4V122.426z" fill="#ADD79C"/><g><path d="M126.439,114.133c3.848-7.17-4.379-11.625-4.379-11.625c-5.467-3.557-10.936-7.113-16.402-10.67    c-5.271-3.43-8.537-2.107-11.725,0.85l27.598,27.836C123.285,118.764,124.928,116.648,126.439,114.133z" fill="#FFFFFF"/><path d="M58.392,42.886c-3.693-5.621-10.289-20.935-19.332-16.027c-2.308,1.4-4.277,2.904-5.939,4.494    l27.406,27.643C64.312,53.937,62.991,49.885,58.392,42.886z" fill="#FFFFFF"/><path d="M56.567,63.193L29.389,35.781c-12.897,19.5,9.584,48.204,23.651,63.042    c14.238,15.018,44.042,37.795,63.972,25.334L89.955,96.865C78.656,107.705,45.83,74.266,56.567,63.193z" fill="#FFFFFF"/></g></g></svg>