<?xml version="1.0" ?><svg id="Glyph" viewBox="0 0 64 64" xmlns="http://www.w3.org/2000/svg"><title/><path d="M35.45,25.68A13.45,13.45,0,0,0,27.22,23a14.59,14.59,0,0,0-10.14,4,15.48,15.48,0,0,0-4.56,9.7l-.14,1.47H11.06a7.4,7.4,0,0,0-5,2.06,7,7,0,0,0-2.06,5,7.71,7.71,0,0,0,2.06,5.14,7.71,7.71,0,0,0,5.14,2.06c14.41,0,29.84-.59,44.24,0A4.23,4.23,0,0,0,58.68,51,4.56,4.56,0,0,0,60,47.73,4.54,4.54,0,0,0,55.3,43H54l-.14-1.47a9.67,9.67,0,0,0-9.41-8.23,5.11,5.11,0,0,1,.29,1.47,19.54,19.54,0,0,1,.3,2.94,15.93,15.93,0,0,1-.3,2.65A16.65,16.65,0,0,1,44.13,43a1.53,1.53,0,0,1-2.94-.88,6,6,0,0,0,.44-2.2,14.16,14.16,0,0,0-6.18-14.26Z" fill="#fff"/><path d="M39,24.5a16.72,16.72,0,0,1,4.41,5.74h1a12.64,12.64,0,0,1,8.23,3.08,12.86,12.86,0,0,1,1.91,2.06h0c.15.29.44.59.74,1l.58-.15a15.13,15.13,0,0,0,3.39-1.91A12.8,12.8,0,0,1,54.12,33a13.14,13.14,0,0,1-6-17.2,13.36,13.36,0,0,1,3.24-4.26,12.48,12.48,0,0,0-3.82.73,11.88,11.88,0,0,0-6.32,5A12.3,12.3,0,0,0,39,24.5Z" fill="#fff"/></svg>