<?xml version="1.0" ?><!DOCTYPE svg  PUBLIC '-//W3C//DTD SVG 1.1//EN'  'http://www.w3.org/Graphics/SVG/1.1/DTD/svg11.dtd'><svg enable-background="new 0 0 24 24" height="24px" id="Layer_1" version="1.1" viewBox="0 0 24 24" width="24px" xml:space="preserve" xmlns="http://www.w3.org/2000/svg" xmlns:xlink="http://www.w3.org/1999/xlink"><g><g><g><path d="M2.4,17.4c0,0-0.1,0-0.1,0c-0.1,0-0.3-0.1-0.3-0.3c-0.7-1.5-1.1-3.1-1.2-4.8l0-0.3l0-0.3c0-1.7,0.4-3.3,1.2-4.8     c0.4-0.9,1-1.7,1.6-2.5c2.2-2.5,5.4-4,8.7-4c2.8,0,5.4,1,7.6,2.9C19.9,3.5,20,3.6,20,3.7c0,0.1,0,0.3-0.1,0.4l-3.2,3.2     c-0.2,0.2-0.5,0.2-0.7,0C14.9,6.5,13.6,6,12.2,6C11,6,9.7,6.4,8.7,7.1c-1,0.7-1.8,1.8-2.2,3c-0.2,0.5-0.3,1.1-0.3,1.6     c0,0.1,0,0.2,0,0.3c0,0.1,0,0.2,0,0.2c0,0.6,0.1,1.1,0.3,1.6c0.1,0.2,0,0.4-0.2,0.6l-3.7,2.8C2.6,17.3,2.5,17.4,2.4,17.4z      M12.2,1.5c-3.1,0-6,1.3-7.9,3.6C3.7,5.8,3.2,6.5,2.8,7.3c-0.7,1.4-1,2.8-1.1,4.4l0,0.3l0,0.3c0,1.3,0.3,2.6,0.8,3.8l2.9-2.2     c-0.1-0.5-0.2-1-0.2-1.5c0-0.1,0-0.2,0-0.3c0-0.1,0-0.2,0-0.3c0-0.7,0.1-1.3,0.3-1.9c0.5-1.4,1.3-2.6,2.5-3.5     c2.4-1.7,5.7-1.8,8.1-0.1l2.5-2.5C16.9,2.3,14.6,1.5,12.2,1.5z"/></g><g><path d="M12.2,23.5c-3.3,0-6.5-1.4-8.7-4c-0.7-0.8-1.2-1.6-1.6-2.4c-0.1-0.2,0-0.5,0.1-0.6l3.7-2.8c0.1-0.1,0.3-0.1,0.5-0.1     c0.2,0,0.3,0.2,0.3,0.3c0.4,1.2,1.1,2.2,2.2,3c0.4,0.3,0.9,0.6,1.4,0.8c0.7,0.3,1.4,0.4,2.2,0.4c1.3,0,2.5-0.3,3.4-0.9     c0.9-0.6,1.5-1.4,1.9-2.4h-5.3c-0.3,0-0.5-0.2-0.5-0.5V10c0-0.3,0.2-0.5,0.5-0.5h10.3c0.2,0,0.4,0.2,0.5,0.4     c0.2,0.7,0.3,1.5,0.3,2.1c0,1.9-0.3,3.6-1,5.2c-0.6,1.3-1.4,2.5-2.5,3.5c-1.2,1.1-2.8,2-4.4,2.5C14.3,23.4,13.3,23.5,12.2,23.5z      M3,17c0.4,0.7,0.8,1.3,1.3,1.9c2,2.3,4.9,3.6,8,3.6c1,0,1.9-0.1,2.8-0.4c1.5-0.4,2.9-1.2,4-2.2c0.9-0.9,1.7-1.9,2.2-3.1     c0.6-1.4,1-3,1-4.8c0-0.5-0.1-1-0.2-1.5h-9.4v3.3h5.4c0.2,0,0.3,0.1,0.4,0.2c0.1,0.1,0.1,0.3,0.1,0.4c-0.3,1.5-1.2,2.8-2.5,3.6     c-1.1,0.7-2.4,1-3.9,1c-0.9,0-1.7-0.2-2.5-0.5c-0.6-0.2-1.1-0.5-1.6-0.9c-1-0.7-1.8-1.7-2.3-2.8L3,17z"/></g></g><g><path d="M6.1,10.5c-0.1,0-0.2,0-0.3-0.1L2.1,7.5C1.8,7.4,1.8,7,2,6.8c0.2-0.2,0.5-0.3,0.7-0.1l3.7,2.8c0.2,0.2,0.3,0.5,0.1,0.7    C6.4,10.4,6.2,10.5,6.1,10.5z"/></g><g><path d="M19.4,20.8c-0.1,0-0.2,0-0.3-0.1l-3.5-2.7c-0.2-0.2-0.3-0.5-0.1-0.7s0.5-0.3,0.7-0.1l3.5,2.7c0.2,0.2,0.3,0.5,0.1,0.7    C19.7,20.7,19.6,20.8,19.4,20.8z"/></g><g><path d="M19.5,14.8h-5.9c-0.3,0-0.5-0.2-0.5-0.5s0.2-0.5,0.5-0.5h5.9c0.3,0,0.5,0.2,0.5,0.5S19.8,14.8,19.5,14.8z"/></g></g></svg>