<svg xmlns="http://www.w3.org/2000/svg" width="285.919" height="160" viewBox="0 0 285.919 160">
  <g id="Group_337" data-name="Group 337" transform="translate(-13 -43)">
    <g id="Group_322" data-name="Group 322" transform="translate(-15743 -192)">
      <path id="Path_813" data-name="Path 813" d="M5.063,0H167.915c2.8,0,5.063,2.686,5.063,6s-2.267,6-5.063,6H5.063C2.267,12,0,9.314,0,6S2.267,0,5.063,0Z" transform="translate(15756 253)" fill="#fff"/>
      <path id="Path_814" data-name="Path 814" d="M3.327,0H110.358c1.838,0,3.327,2.686,3.327,6s-1.49,6-3.327,6H3.327C1.49,12,0,9.314,0,6S1.49,0,3.327,0Z" transform="translate(15790.508 273)" fill="#fff"/>
      <path id="Path_815" data-name="Path 815" d="M3.962,0H131.4c2.188,0,3.962,2.686,3.962,6s-1.774,6-3.962,6H3.962C1.774,12,0,9.314,0,6S1.774,0,3.962,0Z" transform="translate(15780.978 293)" fill="#fff"/>
      <path id="Path_816" data-name="Path 816" d="M15846.555,262.88s7.208,6.753-1.644,10.293,52.223-5.311,52.223-5.311Z" transform="translate(-18.559)" fill="#fff"/>
      <path id="Path_817" data-name="Path 817" d="M15846.555,262.88s7.208,9.255-1.644,14.108,52.223-7.279,52.223-7.279Z" transform="translate(-24.872 18.991)" fill="#fff"/>
    </g>
    <g id="Group_323" data-name="Group 323" transform="translate(131.978 133)">
      <path id="Path_813-2" data-name="Path 813" d="M162.055,0H4.886C2.188,0,0,2.686,0,6s2.188,6,4.886,6H162.055c2.7,0,4.886-2.686,4.886-6S164.754,0,162.055,0Z" fill="#fff"/>
      <path id="Path_814-2" data-name="Path 814" d="M129.337,0H3.9C1.746,0,0,2.686,0,6s1.746,6,3.9,6H129.337c2.154,0,3.9-2.686,3.9-6S131.49,0,129.337,0Z" transform="translate(18.748 20)" fill="#fff"/>
      <path id="Path_815-2" data-name="Path 815" d="M116.836,0H3.523C1.577,0,0,2.686,0,6s1.577,6,3.523,6H116.836c1.946,0,3.523-2.686,3.523-6S118.781,0,116.836,0Z" transform="translate(12.64 40)" fill="#fff"/>
      <path id="Path_816-2" data-name="Path 816" d="M15894.613,262.88s-7.208,6.753,1.644,10.293-52.223-5.311-52.223-5.311Z" transform="translate(-15796.17 -253)" fill="#fff"/>
      <path id="Path_817-2" data-name="Path 817" d="M15894.613,262.88s-7.208,9.255,1.644,14.108-52.223-7.279-52.223-7.279Z" transform="translate(-15790.174 -234.009)" fill="#fff"/>
    </g>
    <circle id="Ellipse_56" data-name="Ellipse 56" cx="80" cy="80" r="80" transform="translate(80.978 43)" fill="#fff"/>
  </g>
</svg>
